<?xml version="1.0" standalone="no"?>
<!DOCTYPE svg PUBLIC "-//W3C//DTD SVG 20010904//EN"
 "http://www.w3.org/TR/2001/REC-SVG-20010904/DTD/svg10.dtd">
<svg version="1.0" xmlns="http://www.w3.org/2000/svg"
 width="512.000000pt" height="512.000000pt" viewBox="0 0 512.000000 512.000000"
 preserveAspectRatio="xMidYMid meet">
<metadata>
Created by potrace 1.11, written by Peter Selinger 2001-2013
</metadata>
<g transform="translate(0.000000,512.000000) scale(0.100000,-0.100000)"
fill="#000000" stroke="none">
<path d="M2152 4260 c-31 -80 -186 -466 -188 -469 -4 -4 -74 16 -319 89 -201
61 -184 61 -179 3 1 -26 5 -93 8 -148 12 -221 18 -310 23 -317 8 -14 -40 -27
-177 -48 -228 -35 -310 -49 -327 -55 -8 -3 4 -32 34 -87 117 -213 203 -373
203 -379 0 -2 -94 -72 -209 -154 -116 -83 -210 -152 -210 -155 0 -3 94 -72
210 -155 115 -82 209 -152 209 -155 0 -4 -56 -108 -124 -233 -68 -125 -121
-229 -117 -232 4 -2 39 -9 77 -15 38 -6 80 -13 94 -15 14 -2 54 -9 90 -14 36
-6 76 -13 90 -16 14 -3 45 -8 70 -11 88 -9 83 0 76 -143 -12 -227 -16 -285
-21 -344 -2 -31 -1 -57 3 -57 4 0 113 31 242 70 129 38 240 70 245 70 6 0 53
-108 105 -240 54 -136 100 -239 106 -238 7 2 72 59 145 128 74 69 156 146 184
172 l50 46 45 -40 c25 -23 95 -87 155 -143 61 -57 128 -119 150 -138 l40 -36
13 37 c7 20 19 51 26 67 8 17 40 95 71 175 60 153 86 210 95 210 3 0 105 -30
225 -66 121 -37 231 -69 244 -72 l23 -5 -6 99 c-4 55 -9 126 -11 159 -10 121
-14 275 -7 276 4 0 14 2 22 4 8 1 33 6 55 9 23 4 50 8 60 10 11 2 97 16 190
31 94 16 172 29 174 31 2 2 -12 31 -32 66 -32 59 -51 93 -132 243 -18 33 -45
82 -60 109 -14 27 -22 52 -17 55 69 45 411 298 409 303 -2 5 -363 269 -403
293 -17 11 -12 20 203 413 19 35 33 65 31 66 -1 2 -106 20 -233 41 -126 20
-237 39 -245 40 -8 2 -19 4 -23 4 -8 1 -6 50 19 435 l6 98 -34 -7 c-18 -4 -58
-15 -88 -25 -159 -53 -373 -111 -380 -104 -5 5 -49 114 -100 242 -50 127 -95
232 -100 232 -5 0 -26 -17 -48 -37 -48 -46 -254 -238 -302 -281 l-34 -32 -45
43 c-25 23 -48 44 -51 47 -3 3 -66 61 -140 130 -74 69 -138 129 -142 135 -4 5
-11 -2 -16 -15z m533 -651 c28 -5 64 -12 80 -15 91 -15 248 -80 355 -147 196
-124 363 -338 439 -565 43 -126 54 -201 54 -362 0 -136 -4 -167 -27 -255 -97
-364 -368 -652 -721 -764 -49 -16 -106 -32 -125 -35 -19 -3 -46 -8 -60 -11
-14 -3 -77 -6 -140 -6 -189 -1 -329 31 -495 113 -205 102 -381 278 -480 478
-15 30 -31 64 -37 74 -13 24 -47 136 -59 194 -37 182 -27 396 28 562 25 78
110 243 158 305 214 283 524 441 870 442 61 1 133 -3 160 -8z"/>
<path d="M2487 3403 c-1 -1 -31 -4 -66 -8 -128 -13 -311 -87 -416 -169 -221
-172 -348 -433 -340 -698 6 -191 45 -322 140 -469 159 -246 423 -391 715 -392
132 0 164 4 275 38 240 73 460 281 549 517 48 127 68 285 51 401 -3 20 -7 52
-10 70 -2 17 -14 64 -26 102 -98 321 -388 562 -724 601 -57 7 -145 11 -148 7z"/>
</g>
</svg>
